{"title":"Arthur Christmas 2011 TS  XViD - INSPiRAL","uid":6899465,"size":1833601992,"categoryP":"video","categoryS":"movies","magnet":"?xt=urn:btih:e88ef589aa4bc35ba94d78efcc92c990727e3f15&amp;dn=Arthur+Christmas+2011+TS++XViD+-+INSPiRAL&amp;tr=udp%3A%2F%2Ftracker.openbittorrent.com%3A80&amp;tr=udp%3A%2F%2Fopen.demonii.com%3A1337&amp;tr=udp%3A%2F%2Ftracker.coppersurfer.tk%3A6969&amp;tr=udp%3A%2F%2Fexodus.desync.com%3A6969","seeders":0,"leechers":1,"uploader":"TvTeam","files":15,"time":1324337037,"description":". \n &lt;a href=&quot;\nhttp://www.torrenting.com&quot; rel=&quot;nofollow&quot; target=&quot;_NEW&quot;&gt;\nhttp://www.torrenting.com&lt;/a&gt;          :     Once &amp; For all ;)\n\n\n               www . Torrenting . Com \n\n(((((((((((((= Enjoy No RAR releases =))))))))))))))))))))\n\n\n...................................NFO:....................................\n\n.ooooo oooo   oooo oooooooo8 oooooooooo  o88   oooooooooo       o      ooooo       \n 888   8888o  88 888         888    888 oooo   888    888     888      888        \n 888   88 888o88  888oooooo  888oooo88   888   888oooo88     8  88     888        \n 888   88   8888         888 888         888   888  88o     8oooo88    888      o \no888o o88o    88 o88oooo888 o888o       o888o o888o  88o8 o88o  o888o o888ooooo88 \n\n \nTITLE: \n\nArthur Christmas 2011 TS  XViD - INSPiRAL\n\nIMDB: \n\nwww.imdb.com/title/tt0905372/\n\n\nSOURCES:\n\nVIDEO - Arthur Christmas 2011 720p - ILLUMINATI\nAUDIO - Arthur Christmas 2011 720p TS XviD 5 1 AC3 - ILLUMINATI\nSUBS - NONE ADDED\n\nSTATS:\n\nVideo\nID                               : 0\nFormat                           : MPEG-4 Visual\nFormat profile                   : Advanced Simple@L5\nFormat settings, BVOP            : 2\nFormat settings, QPel            : No\nFormat settings, GMC             : No warppoints\nFormat settings, Matrix          : Default (H.263)\nMuxing mode                      : Packed bitstream\nCodec ID                         : XVID\nCodec ID/Hint                    : XviD\nDuration                         : 1h 31mn\nBit rate                         : 2 022 Kbps\nWidth                            : 720 pixels\nHeight                           : 336 pixels\nDisplay aspect ratio             : 2.2:1\nFrame rate                       : 24.000 fps\nColor space                      : YUV\nChroma subsampling               : 4:2:0\nBit depth                        : 8 bits\nScan type                        : Progressive\nCompression mode                 : Lossy\nBits/(Pixel*Frame)               : 0.348\nStream size                      : 1.29 GiB (84%)\nWriting library                  : XviD 64\n\nAudio\nID                               : 1\nFormat                           : AC-3\nFormat/Info                      : Audio Coding 3\nMode extension                   : CM (complete main)\nCodec ID                         : 2000\nDuration                         : 1h 31mn\nBit rate mode                    : Constant\nBit rate                         : 384 Kbps\nChannel(s)                       : 6 channels\nChannel positions                : Front: L C R, Side: L R, LFE\nSampling rate                    : 48.0 KHz\nBit depth                        : 16 bits\nCompression mode                 : Lossy\nStream size                      : 251 MiB (16%)\nAlignment                        : Aligned on interleaves\nInterleave, duration             : 42 ms (1.00 video frame)\nInterleave, preload duration     : 512 ms\n\n\n\nNOTES:\n\nTook a 720p file we were given and resized it and ran some filters over it as it was a little dull looking but still\na awesome cam.\nAudio just stripped and remuxed......check sample for Q.\nShouts out the one who busted their balls getting this ....thank you.\n\n\nSCREENS:\n\n[IMG]http://i.imgur.com/uOKZi.png[/IMG]\n[IMG]http://i.imgur.com/UlK2M.png[/IMG]\n[IMG]http://i.imgur.com/Sen7j.png[/IMG]\n\nGREETZ: \n\nPast,Present and Future","torrent":{"xt":"urn:btih:e88ef589aa4bc35ba94d78efcc92c990727e3f15","amp;dn":"Arthur+Christmas+2011+TS++XViD+-+INSPiRAL","amp;tr":["udp%3A%2F%2Ftracker.openbittorrent.com%3A80","udp%3A%2F%2Fopen.demonii.com%3A1337","udp%3A%2F%2Ftracker.coppersurfer.tk%3A6969","udp%3A%2F%2Fexodus.desync.com%3A6969"],"infoHash":"e88ef589aa4bc35ba94d78efcc92c990727e3f15","infoHashBuffer":{"type":"Buffer","data":[232,142,245,137,170,75,195,91,169,77,120,239,204,146,201,144,114,126,63,21]},"announce":[],"urlList":[]}}